{"title":"The.Peanuts.Movie.2015.WEBRip.480p.x264.AAC-VYTO [P2PDL]","uid":13508225,"size":323161434,"categoryP":"video","categoryS":"movies","magnet":"?xt=urn:btih:ad7c6b123bb9b615fa16d5dfb13c06984d054ab1&amp;dn=The.Peanuts.Movie.2015.WEBRip.480p.x264.AAC-VYTO+%5BP2PDL%5D&amp;tr=udp%3A%2F%2Ftracker.leechers-paradise.org%3A6969&amp;tr=udp%3A%2F%2Fzer0day.ch%3A1337&amp;tr=udp%3A%2F%2Fopen.demonii.com%3A1337&amp;tr=udp%3A%2F%2Ftracker.coppersurfer.tk%3A6969&amp;tr=udp%3A%2F%2Fexodus.desync.com%3A6969","seeders":1,"leechers":4,"uploader":"VYTOP2PDL","files":7,"time":1455261610,"description":"____    ____ ____    ____ .___________.  ______   \r\n     /   /      /   / |           | /  __    \r\n    /   /      /   /  `---|  |----`|  |  |  | \r\n        /     _    _/       |  |     |  |  |  | \r\n       /        |  |         |  |     |  `--'  | \r\n    __/         |__|         |__|      ______/  \r\n                                                  \r\nPresenting Small Encodes with quality for years!\r\n                                                                                                   \r\n                                                                                                   \r\n\r\n\r\nThe.Peanuts.Movie.2015.WEBRip.480p.x264.AAC-VYTO\r\n\r\n\r\nGenre: Animation, Adventure, Comedy \nhttp://www.imdb.com/title/tt2452042/\r\n\r\n\r\nFormat                                   : MPEG-4\r\nFile size                                : 301 MiB\r\nDuration                                 : 1h 28mn\r\nOverall bit rate                         : 475 Kbps\r\n\r\nVideo\r\nFormat                                   : AVC\r\nBit rate                                 : 440 Kbps\r\nWidth                                    : 720 pixels\r\nHeight                                   : 384 pixels\r\nDisplay aspect ratio                     : 1.85:1\r\nFrame rate mode                          : Constant\r\nFrame rate                               : 23.976 fps\r\nBit depth                                : 8 bits\r\nStream size                              : 279 MiB (93%)\r\nWriting library                          : x264\r\n\r\nAudio\r\nFormat                                   : AAC\r\nBit rate mode                            : Variable\r\nBit rate                                 : 31.9 Kbps\r\nChannel(s)                               : 2 channels \r\nChannel positions                        : Front: L R\r\nSampling rate                            : 48.0 KHz\r\nStream size                              : 20.1 MiB (7%)\r\nLanguage                                 : English\r\n\r\nSubtitle                                 : Yes (English)\r\n\r\nScreen Shots: (Click to view)\r\n \nhttp://ititli.com/X1F \nhttp://ititli.com/X1J \nhttp://ititli.com/X15 \nhttp://ititli.com/X1B \nhttp://ititli.com/X1N \nhttp://ititli.com/X1P \nhttp://ititli.com/X1f \nhttp://ititli.com/X1u \nhttp://ititli.com/X1v\r\n\r\n----------------------------------------------------------------------------------------------------\r\n\r\n\r\nEncoder Notes: Looking For Early Access To Anything You Can Provide WEBDL, DVDScr, DVDR, BluRay,\r\nDirect Audio, Music Releases and Seedboxes. If You Got anything to offer please contact us.\r\n\r\nSupport us by donating BC - 1FgwdzPsd1y25Gea8wP1qni35uGCtmkRCD\r\n\r\nSend some love!\r\nFind us and join us!","torrent":{"xt":"urn:btih:ad7c6b123bb9b615fa16d5dfb13c06984d054ab1","amp;dn":"The.Peanuts.Movie.2015.WEBRip.480p.x264.AAC-VYTO+%5BP2PDL%5D","amp;tr":["udp%3A%2F%2Ftracker.leechers-paradise.org%3A6969","udp%3A%2F%2Fzer0day.ch%3A1337","udp%3A%2F%2Fopen.demonii.com%3A1337","udp%3A%2F%2Ftracker.coppersurfer.tk%3A6969","udp%3A%2F%2Fexodus.desync.com%3A6969"],"infoHash":"ad7c6b123bb9b615fa16d5dfb13c06984d054ab1","infoHashBuffer":{"type":"Buffer","data":[173,124,107,18,59,185,182,21,250,22,213,223,177,60,6,152,77,5,74,177]},"announce":[],"urlList":[]}}